<svg xmlns="http://www.w3.org/2000/svg" viewBox="0 0 512 512">
  <rect width="512" height="512" rx="96" fill="#6c5ce7"/>
  <g fill="#fff">
    <path d="M160 144V96h32v48c0 17.7 14.3 32 32 32h64c17.7 0 32-14.3 32-32V96h32v48c0 35.3-28.7 64-64 64h-64c-35.3 0-64-28.7-64-64z"/>
    <circle cx="224" cy="256" r="48"/>
    <circle cx="352" cy="256" r="48"/>
    <path d="M160 320V224h32v96c0 17.7 14.3 32 32 32h128c17.7 0 32-14.3 32-32V224h32v96c0 35.3-28.7 64-64 64H224c-35.3 0-64-28.7-64-64z"/>
  </g>
</svg>
